# xmcd CD database file
#
# Track frame offsets:
#	150
#	13290
#	26407
#	43110
#	53565
#	67455
#	78217
#	89312
#	101147
#	113657
#
# Disc length: 1766 seconds
#
# Revision: 0
# Processed by: cddbd v1.5PL3 Copyright (c) Steve Scherf et al.
# Submitted via: CDex 1.51
#
DISCID=7f06e40a
DTITLE=Don Williams - I've Got a Winner in You
DYEAR=1974
DGENRE=Country
TTITLE0=Where Are You
TTITLE1=Reason To Be
TTITLE2=Oh Misery
TTITLE3=In the Mornin'
TTITLE4=Missing You, Missing Me
TTITLE5=Louisiana Saturday Night
TTITLE6=The Flood (Wish I Was In Nashville)
TTITLE7=I've Got a Winner in You
TTITLE8=You're the Only One
TTITLE9=Maggie's Dream
EXTD=YEAR: 1974
EXTT0=
EXTT1=
EXTT2=
EXTT3=
EXTT4=
EXTT5=
EXTT6=
EXTT7=
EXTT8=
EXTT9=
PLAYORDER=
